<svg xmlns="http://www.w3.org/2000/svg" viewBox="0 0 191.31 175.16"><defs><style>.cls-1{fill:#fff;}</style></defs><title>White_logo_tx</title><g id="Layer_2" data-name="Layer 2"><g id="Layer_2_copy" data-name="Layer 2 copy"><path class="cls-1" d="M127.34,0,63.67,36.76v73.52L85.77,123l0,0,9.74,5.62,0,0L127.34,147,191,110.28V36.76ZM73.41,104.66V42.38l22.1-12.76,22.1,12.76v62.28l-22.1,12.76Zm107.87,0L127.34,135.8,105.25,123l22.09-12.76V36.76L105.25,24l22.09-12.76,53.94,31.14Z"/><polygon class="cls-1" points="9.74 67.9 0 73.52 0 99.08 0 99.08 9.74 93.45 9.74 67.9"/><polygon class="cls-1" points="9.77 104.68 0.03 110.3 31.87 128.68 41.6 123.06 9.77 104.68"/><polygon class="cls-1" points="53.94 16.86 53.94 5.66 53.9 5.64 9.79 31.11 19.52 36.73 53.94 16.86"/><polygon class="cls-1" points="9.74 42.38 9.79 42.35 0.05 36.73 0 36.76 0 62.28 9.74 56.66 9.74 42.38"/><polygon class="cls-1" points="63.67 11.24 75.25 17.93 84.99 12.31 63.67 0 63.67 0.04 63.67 0.04 63.67 11.24"/><polygon class="cls-1" points="63.67 135.8 51.34 128.68 41.6 134.3 63.67 147.04 85.74 134.3 76 128.68 63.67 135.8"/><path class="cls-1" d="M.31,162a.19.19,0,0,1,.22-.22H2.32a.36.36,0,0,1,.32.15l5.57,5.35L13.78,162a.5.5,0,0,1,.35-.15H15.8c.14,0,.22.05.22.15a.69.69,0,0,1-.26.47l-6.95,6.74-.16.13a.81.81,0,0,1-.44.12.78.78,0,0,1-.44-.12.75.75,0,0,1-.16-.13l-5.23-5v10.45a.51.51,0,0,1-.53.53h-1A.54.54,0,0,1,.46,175a.54.54,0,0,1-.15-.38ZM16,174.63a.54.54,0,0,1-.15.38.55.55,0,0,1-.38.15h-1A.54.54,0,0,1,14,175a.55.55,0,0,1-.16-.38v-8.06a.7.7,0,0,1,.1-.3,1.46,1.46,0,0,1,.22-.33l1.42-1.42a.41.41,0,0,1,.28-.15q.09,0,.09.15Z"/><path class="cls-1" d="M32.7,162.35A.85.85,0,0,1,33,162a.86.86,0,0,1,.46-.15h1.13a.86.86,0,0,1,.46.15,1.08,1.08,0,0,1,.36.38L42,174.63a1,1,0,0,1,.06.25c0,.19-.11.28-.31.28H40.26a.65.65,0,0,1-.57-.37L38.21,172H32.07c-.21,0-.31-.1-.31-.29a1.14,1.14,0,0,1,.06-.25l.5-1a.65.65,0,0,1,.57-.37H37.2L34,163.92l-5.54,10.87a.57.57,0,0,1-.23.26.59.59,0,0,1-.33.11H26.56c-.21,0-.31-.09-.31-.28a1,1,0,0,1,.06-.25Z"/><path class="cls-1" d="M49.17,162.35a.51.51,0,0,1,.53-.53H62.2a.5.5,0,0,1,.39.15.54.54,0,0,1,.15.38v.91a.52.52,0,0,1-.15.38.47.47,0,0,1-.39.16H49.7a.51.51,0,0,1-.38-.16.52.52,0,0,1-.15-.38Zm5.63,3.56a.48.48,0,0,1,.54-.54h1.19a.48.48,0,0,1,.54.54v8.72a.57.57,0,0,1-.14.38.54.54,0,0,1-.4.15H55.34a.54.54,0,0,1-.4-.15.57.57,0,0,1-.14-.38Z"/><path class="cls-1" d="M71.52,162.35a.51.51,0,0,1,.16-.38.51.51,0,0,1,.37-.15h12.5a.54.54,0,0,1,.4.15.57.57,0,0,1,.14.38v.91a.56.56,0,0,1-.14.38.51.51,0,0,1-.4.16H72.05a.49.49,0,0,1-.37-.16.49.49,0,0,1-.16-.38Zm5.63,3.56a.48.48,0,0,1,.54-.54h1.19a.48.48,0,0,1,.54.54v8.72a.57.57,0,0,1-.14.38.54.54,0,0,1-.4.15H77.69a.5.5,0,0,1-.39-.15.54.54,0,0,1-.15-.38Z"/><path class="cls-1" d="M97.05,173.18h9.54a.51.51,0,0,1,.38.16.52.52,0,0,1,.15.38v.91a.51.51,0,0,1-.53.53H95.47a.5.5,0,0,1-.37-.15.51.51,0,0,1-.16-.38V162.35a.51.51,0,0,1,.16-.38.5.5,0,0,1,.37-.15h11a.52.52,0,0,1,.38.15.51.51,0,0,1,.16.38v.91a.55.55,0,0,1-.54.54H97.05Zm1.67-5.41a.49.49,0,0,1,.16-.38.49.49,0,0,1,.37-.16h6.46a.53.53,0,0,1,.53.54v.91a.5.5,0,0,1-.15.39.54.54,0,0,1-.38.14H99.25a.5.5,0,0,1-.37-.14.47.47,0,0,1-.16-.39Z"/><path class="cls-1" d="M126.14,161.82a4.07,4.07,0,0,1,1.62.31A3.93,3.93,0,0,1,129,163a4.29,4.29,0,0,1,.85,1.27,4.17,4.17,0,0,1-.57,4.14,4,4,0,0,1-2.24,1.37l3.59,4.85a.54.54,0,0,1,.1.31c0,.15-.09.22-.25.22h-1.74a.41.41,0,0,1-.2-.06.44.44,0,0,1-.17-.16l-3.75-5h-2.39a.53.53,0,0,1-.38-.16.51.51,0,0,1-.16-.38v-.82a.53.53,0,0,1,.54-.53H126a2.1,2.1,0,0,0,1.55-.6,2.08,2.08,0,0,0,.6-1.54,2,2,0,0,0-.63-1.48,2.13,2.13,0,0,0-1.52-.6h-6v10.83a.54.54,0,0,1-.15.38.55.55,0,0,1-.38.15h-1.14A.51.51,0,0,1,118,175a.51.51,0,0,1-.16-.38V162.35A.51.51,0,0,1,118,162a.51.51,0,0,1,.37-.15Z"/><path class="cls-1" d="M141.35,162.35a.51.51,0,0,1,.53-.53h1.2a.51.51,0,0,1,.37.15.51.51,0,0,1,.16.38v12.28a.51.51,0,0,1-.16.38.51.51,0,0,1-.37.15h-1.2a.51.51,0,0,1-.53-.53Z"/><path class="cls-1" d="M154.85,174.41a1,1,0,0,1,.11-.47c.08-.15.16-.31.27-.48l7.15-8a1,1,0,0,1,.28-.22.54.54,0,0,1,.31-.1H165c.13,0,.19,0,.19.16a.35.35,0,0,1-.13.22l-6.83,7.68H167a.51.51,0,0,1,.4.16.56.56,0,0,1,.14.38v.91a.57.57,0,0,1-.14.38.54.54,0,0,1-.4.15H155.39A.46.46,0,0,1,155,175,.81.81,0,0,1,154.85,174.41Zm.82-12.06a.47.47,0,0,1,.16-.39.51.51,0,0,1,.38-.14h11c.21,0,.32.07.32.22a1.67,1.67,0,0,1-.54,1.24,1.75,1.75,0,0,1-1.29.52h-9.5a.55.55,0,0,1-.54-.54Z"/><path class="cls-1" d="M181.23,173.18h9.54a.55.55,0,0,1,.54.54v.91a.51.51,0,0,1-.16.38.52.52,0,0,1-.38.15H179.65a.51.51,0,0,1-.37-.15.55.55,0,0,1-.16-.38V162.35a.55.55,0,0,1,.16-.38.51.51,0,0,1,.37-.15h11a.51.51,0,0,1,.37.15.51.51,0,0,1,.16.38v.91a.49.49,0,0,1-.16.38.49.49,0,0,1-.37.16h-9.42Zm1.67-5.41a.55.55,0,0,1,.54-.54h6.45a.51.51,0,0,1,.38.16.53.53,0,0,1,.16.38v.91a.5.5,0,0,1-.16.39.53.53,0,0,1-.38.14h-6.45a.51.51,0,0,1-.38-.14.47.47,0,0,1-.16-.39Z"/></g></g></svg>